<?xml version="1.0" encoding="UTF-8"?>
<svg width="256px" height="32px" viewBox="0 0 256 32" version="1.1" xmlns="http://www.w3.org/2000/svg" xmlns:xlink="http://www.w3.org/1999/xlink">
    <!-- Generator: Sketch 45.1 (43504) - http://www.bohemiancoding.com/sketch -->
    <title>Todoist_Developer_Beta3</title>
    <desc>Created with Sketch.</desc>
    <defs>
        <polygon id="path-1" points="3.125e-06 0 32 0 32 31.9999875 3.125e-06 31.9999875"></polygon>
    </defs>
    <g id="Subbrand-Lockups" stroke="none" stroke-width="1" fill="none" fill-rule="evenodd">
        <g id="Todoist_Developer_Beta3">
            <path d="M139.69975,23.1488 L141.44695,23.1488 C145.03095,23.1488 146.75575,21.088 146.75575,17.5488 L146.75575,17.3696 C146.75575,13.92 145.18775,11.8368 141.42455,11.8368 L139.69975,11.8368 L139.69975,23.1488 Z M136.72055,25.5008 L136.72055,9.4848 L141.58135,9.4848 C147.15895,9.4848 149.86935,12.6656 149.86935,17.3248 L149.86935,17.5264 C149.86935,22.1856 147.15895,25.5008 141.53655,25.5008 L136.72055,25.5008 Z M156.89015,25.7248 C153.44055,25.7248 150.95415,23.4624 150.95415,19.7664 L150.95415,19.5872 C150.95415,15.9584 153.44055,13.5392 156.77815,13.5392 C159.69015,13.5392 162.31095,15.264 162.31095,19.4528 L162.31095,20.2368 L153.73175,20.2368 C153.82135,22.4544 154.94135,23.7088 156.95735,23.7088 C158.59255,23.7088 159.44375,23.0592 159.64535,21.9168 L162.26615,21.9168 C161.88535,24.3808 159.89175,25.7248 156.89015,25.7248 Z M153.77655,18.4224 L159.62295,18.4224 C159.48855,16.4064 158.45815,15.5104 156.77815,15.5104 C155.14295,15.5104 154.04535,16.608 153.77655,18.4224 Z M166.82295,25.5008 L169.98135,25.5008 L174.21495,13.7856 L171.54935,13.7856 L168.52535,22.7232 L165.45655,13.7856 L162.54455,13.7856 L166.82295,25.5008 Z M180.18295,25.7248 C176.73335,25.7248 174.24695,23.4624 174.24695,19.7664 L174.24695,19.5872 C174.24695,15.9584 176.73335,13.5392 180.07095,13.5392 C182.98295,13.5392 185.60375,15.264 185.60375,19.4528 L185.60375,20.2368 L177.02455,20.2368 C177.11415,22.4544 178.23415,23.7088 180.25015,23.7088 C181.88535,23.7088 182.73655,23.0592 182.93815,21.9168 L185.55895,21.9168 C185.17815,24.3808 183.18455,25.7248 180.18295,25.7248 Z M177.06935,18.4224 L182.91575,18.4224 C182.78135,16.4064 181.75095,15.5104 180.07095,15.5104 C178.43575,15.5104 177.33815,16.608 177.06935,18.4224 Z M187.33815,25.5008 L190.04855,25.5008 L190.04855,8.3648 L187.33815,8.3648 L187.33815,25.5008 Z M197.83095,23.6192 C199.84695,23.6192 201.05655,22.1184 201.05655,19.7216 L201.05655,19.5648 C201.05655,17.1456 199.84695,15.6672 197.83095,15.6672 C195.81495,15.6672 194.58295,17.1232 194.58295,19.5424 L194.58295,19.7216 C194.58295,22.1184 195.77015,23.6192 197.83095,23.6192 Z M197.80855,25.7248 C194.35895,25.7248 191.80535,23.328 191.80535,19.7664 L191.80535,19.5872 C191.80535,15.9584 194.38135,13.5392 197.83095,13.5392 C201.25815,13.5392 203.83415,15.936 203.83415,19.52 L203.83415,19.6992 C203.83415,23.3504 201.25815,25.7248 197.80855,25.7248 Z M205.52375,29.5104 L205.52375,13.7856 L208.23415,13.7856 L208.23415,15.6672 C208.88375,14.5472 210.33975,13.5392 212.06455,13.5392 C214.99895,13.5392 217.26135,15.712 217.26135,19.4976 L217.26135,19.6768 C217.26135,23.44 215.08855,25.7248 212.06455,25.7248 C210.20535,25.7248 208.86135,24.8064 208.23415,23.664 L208.23415,29.5104 L205.52375,29.5104 Z M211.39255,23.5744 C213.38615,23.5744 214.48375,22.2304 214.48375,19.7216 L214.48375,19.5424 C214.48375,16.944 213.13975,15.6672 211.37015,15.6672 C209.48855,15.6672 208.14455,16.944 208.14455,19.5424 L208.14455,19.7216 C208.14455,22.3424 209.42135,23.5744 211.39255,23.5744 Z M224.10295,25.7248 C220.65335,25.7248 218.16695,23.4624 218.16695,19.7664 L218.16695,19.5872 C218.16695,15.9584 220.65335,13.5392 223.99095,13.5392 C226.90295,13.5392 229.52375,15.264 229.52375,19.4528 L229.52375,20.2368 L220.94455,20.2368 C221.03415,22.4544 222.15415,23.7088 224.17015,23.7088 C225.80535,23.7088 226.65655,23.0592 226.85815,21.9168 L229.47895,21.9168 C229.09815,24.3808 227.10455,25.7248 224.10295,25.7248 Z M220.98935,18.4224 L226.83575,18.4224 C226.70135,16.4064 225.67095,15.5104 223.99095,15.5104 C222.35575,15.5104 221.25815,16.608 220.98935,18.4224 Z M231.19095,25.5008 L233.90135,25.5008 L233.90135,19.408 C233.90135,16.9216 235.33495,16.16 237.70935,16.1376 L237.70935,13.6064 C235.73815,13.6288 234.64055,14.5024 233.90135,15.9808 L233.90135,13.7856 L231.19095,13.7856 L231.19095,25.5008 Z" id="Developer" fill="#C4C4C4"></path>
            <g id="TodoistLogo">
                <g id="Wordmark" transform="translate(41.600000, 5.760000)" fill="#E44332">
                    <path d="M13.76,13.2811252 C13.76,13.798706 13.8463736,14.3005345 14.019436,14.7795379 C14.1921832,15.2633635 14.4449994,15.6883584 14.7819825,16.059345 C15.1189656,16.4296886 15.5221475,16.726092 15.9943652,16.9472694 C16.4662677,17.1687683 17.003108,17.28 17.6014185,17.28 C18.1997291,17.28 18.7359389,17.1687683 19.2084719,16.9472694 C19.6800591,16.726092 20.0838714,16.4296886 20.4208546,16.059345 C20.7553158,15.6883584 21.0103386,15.2633635 21.1830858,14.7795379 C21.3536264,14.3005345 21.44,13.798706 21.44,13.2811252 C21.44,12.7635443 21.3536264,12.2617159 21.1830858,11.7801406 C21.0103386,11.2985654 20.7553158,10.8738919 20.4208546,10.5029054 C20.0838714,10.1325618 19.6800591,9.83615833 19.2084719,9.61465943 C18.7359389,9.39316054 18.1997291,9.28 17.6014185,9.28 C17.003108,9.28 16.4662677,9.39316054 15.9943652,9.61465943 C15.5221475,9.83615833 15.1189656,10.1325618 14.7819825,10.5029054 C14.4449994,10.8738919 14.1921832,11.2985654 14.019436,11.7801406 C13.8463736,12.2617159 13.76,12.7635443 13.76,13.2811252 M10.56,13.4411317 C10.56,12.3792711 10.7483897,11.4153836 11.1261271,10.5491459 C11.5006714,9.68258491 12.012836,8.94374463 12.6568735,8.32777495 C13.2989951,7.71406866 14.0624524,7.23875347 14.9450104,6.90247606 C15.8291649,6.56846205 16.7656854,6.4 17.7603193,6.4 C18.7523988,6.4 19.6911544,6.56846205 20.5733931,6.90247606 C21.4556317,7.23875347 22.2190891,7.71406866 22.8634458,8.32777495 C23.5078026,8.94374463 24.0177321,9.68258491 24.3945115,10.5491459 C24.7716103,11.4153836 24.96,12.3792711 24.96,13.4411317 C24.96,14.5029923 24.7716103,15.4668798 24.3945115,16.3327941 C24.0177321,17.1996785 23.5078026,17.9381954 22.8634458,18.5544885 C22.2190891,19.1681947 21.4556317,19.6435099 20.5733931,19.9775239 C19.6911544,20.3138014 18.7523988,20.48 17.7603193,20.48 C16.7656854,20.48 15.8291649,20.3138014 14.9450104,19.9775239 C14.0624524,19.6435099 13.2989951,19.1681947 12.6568735,18.5544885 C12.012836,17.9381954 11.5006714,17.1996785 11.1261271,16.3327941 C10.7483897,15.4668798 10.56,14.5029923 10.56,13.4411317" id="Fill-2"></path>
                    <path d="M29.76,13.2811252 C29.76,13.798706 29.8463736,14.3005345 30.019436,14.7795379 C30.1921832,15.2633635 30.4449994,15.6883584 30.7816673,16.059345 C31.1186504,16.4296886 31.5221475,16.726092 31.99405,16.9472694 C32.4662677,17.1687683 33.0027928,17.28 33.6014185,17.28 C34.1994139,17.28 34.7359389,17.1687683 35.2081566,16.9472694 C35.6800591,16.726092 36.0838714,16.4296886 36.4202241,16.059345 C36.7553158,15.6883584 37.0103386,15.2633635 37.1830858,14.7795379 C37.3536264,14.3005345 37.44,13.798706 37.44,13.2811252 C37.44,12.7635443 37.3536264,12.2617159 37.1830858,11.7801406 C37.0103386,11.2985654 36.7553158,10.8738919 36.4202241,10.5029054 C36.0838714,10.1325618 35.6800591,9.83615833 35.2081566,9.61465943 C34.7359389,9.39316054 34.1994139,9.28 33.6014185,9.28 C33.0027928,9.28 32.4662677,9.39316054 31.99405,9.61465943 C31.5221475,9.83615833 31.1186504,10.1325618 30.7816673,10.5029054 C30.4449994,10.8738919 30.1921832,11.2985654 30.019436,11.7801406 C29.8463736,12.2617159 29.76,12.7635443 29.76,13.2811252 L29.76,13.2811252 Z M37.7903526,17.8504625 L37.733723,17.8504625 C37.2520499,18.6584983 36.6053144,19.2447141 35.7883684,19.6116559 C34.9736748,19.97637 34.093664,20.16 33.1483362,20.16 C32.1096984,20.16 31.1888242,19.9833715 30.3812093,19.6250224 C29.5755249,19.2673098 28.8856737,18.7772054 28.3110122,18.1527996 C27.7363507,17.5306216 27.2997238,16.7964197 27.0033838,15.9530582 C26.7067221,15.1116062 26.56,14.2033217 26.56,13.2320239 C26.56,12.260726 26.7160531,11.3524416 27.0329857,10.5087618 C27.3473441,9.6673098 27.7862234,8.93342616 28.3518756,8.30902039 C28.9172061,7.68684237 29.5983698,7.19673794 30.3947232,6.83902536 C31.1933289,6.48067628 32.0643303,6.30181999 33.0077276,6.30181999 C33.6390186,6.30181999 34.1953399,6.36674291 34.6776565,6.49404276 C35.1593297,6.62388861 35.5843732,6.78746892 35.9556831,6.99114868 C36.3263494,7.1926007 36.6413514,7.40741919 36.9013326,7.63560418 C37.1593833,7.86569866 37.3743183,8.08974639 37.5393806,8.30902039 L37.6230379,8.30902039 L37.6230379,1.03765291 C37.6230379,0.708901044 37.887202,0.32 38.3505349,0.32 L40.2347553,0.32 C40.6707387,0.32 40.96,0.682486325 40.96,1.03765291 L40.96,19.112004 C40.96,19.5712382 40.5664888,19.8309299 40.2347553,19.8309299 L38.5194584,19.8309299 C38.111468,19.8309299 37.7903526,19.4910393 37.7903526,19.113277 L37.7903526,17.8504625 Z" id="Fill-4"></path>
                    <path d="M46.4,13.2811252 C46.4,13.798706 46.4863736,14.3005345 46.659436,14.7795379 C46.8321832,15.2633635 47.0849994,15.6883584 47.4222977,16.059345 C47.7589656,16.4296886 48.1624628,16.726092 48.6343652,16.9472694 C49.1062677,17.1687683 49.643108,17.28 50.2414185,17.28 C50.8397291,17.28 51.3759389,17.1687683 51.8484719,16.9472694 C52.3206896,16.726092 52.7238714,16.4296886 53.0608546,16.059345 C53.3956311,15.6883584 53.6503386,15.2633635 53.8230858,14.7795379 C53.9939416,14.3005345 54.08,13.798706 54.08,13.2811252 C54.08,12.7635443 53.9939416,12.2617159 53.8230858,11.7801406 C53.6503386,11.2985654 53.3956311,10.8738919 53.0608546,10.5029054 C52.7238714,10.1325618 52.3206896,9.83615833 51.8484719,9.61465943 C51.3759389,9.39316054 50.8397291,9.28 50.2414185,9.28 C49.643108,9.28 49.1062677,9.39316054 48.6343652,9.61465943 C48.1624628,9.83615833 47.7589656,10.1325618 47.4222977,10.5029054 C47.0849994,10.8738919 46.8321832,11.2985654 46.659436,11.7801406 C46.4863736,12.2617159 46.4,12.7635443 46.4,13.2811252 M43.2,13.4411317 C43.2,12.3792711 43.3883814,11.4153836 43.766102,10.5491459 C44.1406297,9.68258491 44.6527716,8.94374463 45.2967805,8.32777495 C45.9388736,7.71406866 46.7022971,7.23875347 47.584816,6.90247606 C48.4689313,6.56846205 49.4054102,6.4 50.4,6.4 C51.3920355,6.4 52.3307494,6.56846205 53.212949,6.90247606 C54.0951486,7.23875347 54.8585721,7.71406866 55.5029002,8.32777495 C56.1472284,8.94374463 56.6571353,9.68258491 57.033898,10.5491459 C57.41098,11.4153836 57.6,12.3792711 57.6,13.4411317 C57.6,14.5029923 57.41098,15.4668798 57.033898,16.3327941 C56.6571353,17.1996785 56.1472284,17.9381954 55.5029002,18.5544885 C54.8585721,19.1681947 54.0951486,19.6435099 53.212949,19.9775239 C52.3307494,20.3138014 51.3920355,20.48 50.4,20.48 C49.4054102,20.48 48.4689313,20.3138014 47.584816,19.9775239 C46.7022971,19.6435099 45.9388736,19.1681947 45.2967805,18.5544885 C44.6527716,17.9381954 44.1406297,17.1996785 43.766102,16.3327941 C43.3883814,15.4668798 43.2,14.5029923 43.2,13.4411317" id="Fill-6"></path>
                    <path d="M59.2,1.92 C59.2,1.40382452 59.3934666,0.957068938 59.7800872,0.572636992 C60.1692081,0.190981842 60.6592817,0 61.2524959,0 C61.8460225,0 62.3467228,0.182342921 62.7514711,0.547028764 C63.1555943,0.911406074 63.36,1.36896031 63.36,1.92 C63.36,2.47103969 63.1555943,2.92859393 62.7514711,3.29327977 C62.3467228,3.65765708 61.8460225,3.84 61.2524959,3.84 C60.6592817,3.84 60.1692081,3.64901816 59.7800872,3.26520328 C59.3934666,2.8832396 59.2,2.43648401 59.2,1.92" id="Fill-8"></path>
                    <path d="M72.9388987,10.4511728 C72.6105861,10.4511728 72.3684039,10.1979947 72.3267689,10.0877345 C72.0524864,9.35730118 71.1797406,9.08310575 70.4751238,9.08310575 C69.3636919,9.08310575 68.4912638,9.60724584 68.4912638,10.5084046 C68.4912638,11.3804625 69.3354055,11.5583015 69.8566375,11.71868 C70.4293571,11.8952256 71.5223553,12.1377334 72.1249504,12.2816213 C72.7377159,12.4284193 73.3082107,12.6434429 73.8415201,12.9253986 C75.5911435,13.8491914 75.84,15.3029445 75.84,16.1785592 C75.84,19.4084391 72.6944917,20.48 70.5104024,20.48 C68.8272042,20.48 65.6645335,20.2206784 64.9700871,16.9552307 C64.9023905,16.6377072 65.1792156,16.1491349 65.6867812,16.1491349 L67.5056903,16.1491349 C67.8638784,16.1491349 68.1051072,16.4149234 68.1753464,16.6234801 C68.4092651,17.2795444 69.1523386,17.7752302 70.4052025,17.7752302 C71.7492819,17.7752302 72.543843,17.2329829 72.543843,16.5116032 C72.543843,16.0456649 72.2838626,15.6304917 71.9447439,15.3967142 C70.9251632,14.6934417 68.4044978,14.6138992 67.0362637,13.8731188 C66.5121712,13.5895464 65.1970138,12.9412424 65.1970138,10.7311884 C65.1970138,7.68496773 67.9191799,6.4 70.3104908,6.4 C73.8373883,6.4 75.1318872,8.6672858 75.2777686,9.50733264 C75.358496,9.97100746 75.103283,10.4511728 74.5903144,10.4511728 L72.9388987,10.4511728 Z" id="Fill-10"></path>
                    <path d="M76.16,8.6252353 L76.16,7.24954413 C76.16,6.92141822 76.422533,6.52657657 76.8878143,6.52657657 L78.6839559,6.52657657 L78.6839559,3.14909277 C78.6839559,2.78760899 78.9325174,2.56757538 79.1206444,2.48674671 C79.2317661,2.4386344 80.2367346,2.00594441 81.0392798,1.66049806 C81.5997617,1.43308723 82.0539958,1.88887113 82.0539958,2.32829685 L82.0539958,6.52657657 L85.0269871,6.52657657 C85.4860949,6.52657657 85.76,6.92238046 85.76,7.24954413 L85.76,8.62715979 C85.76,9.02617118 85.3983673,9.35205185 85.027312,9.35205185 L82.0539958,9.35205185 L82.0539958,15.17332 C82.0539958,15.838232 82.0351506,16.3581657 82.29216,16.7424226 C82.5283747,17.0946047 82.8747363,17.2251494 83.5687592,17.2251494 C83.7676085,17.2251494 83.9453381,17.192433 84.0954498,17.1420755 C84.5357124,16.9932481 84.8648534,17.2472811 84.9763,17.460579 C85.195944,17.879156 85.4467799,18.3394304 85.6225601,18.66916 C85.8158857,19.0312853 85.6605754,19.4954087 85.3070656,19.6644433 C84.7368361,19.9380419 83.9472876,20.16 82.8640141,20.16 C81.9662682,20.16 81.457773,20.0628131 80.8888432,19.8687602 C80.3179639,19.6747072 79.7763271,19.2635074 79.4497854,18.8664205 C79.1209693,18.4696544 78.9581859,17.9381738 78.8369918,17.3470339 C78.7131984,16.7565356 78.6839559,16.0393415 78.6839559,15.2615259 L78.6839559,9.35205185 L76.892688,9.35205185 C76.422533,9.35205185 76.16,8.95047448 76.16,8.6252353" id="Fill-12"></path>
                    <path d="M0.32,8.6252353 L0.32,7.24954413 C0.32,6.92141822 0.575713061,6.52657657 1.0289075,6.52657657 L3.02808993,6.52657657 L3.02808993,3.14909277 C3.02808993,2.78760899 3.26987802,2.56757538 3.45311795,2.48674671 C3.56166941,2.4386344 4.54021494,2.00594441 5.32191205,1.66049806 C5.86783411,1.43308723 6.31026835,1.88887113 6.31026835,2.32829685 L6.31026835,6.52657657 L9.20634536,6.52657657 C9.65321026,6.52657657 9.92,6.92238046 9.92,7.24954413 L9.92,8.62715979 C9.92,9.02617118 9.56776159,9.35205185 9.20634536,9.35205185 L6.31026835,9.35205185 L6.31026835,15.17332 C6.31026835,15.838232 6.29191271,16.3581657 6.54256214,16.7424226 C6.77232412,17.0946047 7.10968814,17.2251494 7.78568207,17.2251494 C7.97936573,17.2251494 8.15247841,17.192433 8.29869058,17.1420755 C8.72751632,16.9932481 9.04810707,17.2472811 9.15697501,17.460579 C9.37059669,17.879156 9.61523307,18.3394304 9.78613041,18.66916 C9.97443397,19.0312853 9.82315817,19.4954087 9.47883167,19.6644433 C8.92341531,19.9380419 8.15469374,20.16 7.09956089,20.16 C6.22481967,20.16 5.72953386,20.0628131 5.17569987,19.8687602 C4.61933408,19.6747072 4.09208413,19.2635074 3.77370871,18.8664205 C3.45343443,18.4696544 3.29487967,17.9381738 3.17683392,17.3470339 C3.05657282,16.7565356 3.02808993,16.0393415 3.02808993,15.2615259 L3.02808993,9.35205185 L1.03365464,9.35205185 C0.575713061,9.35205185 0.32,8.95047448 0.32,8.6252353" id="Fill-14"></path>
                    <path d="M60.5357863,19.84 L62.3442137,19.84 C62.7271276,19.84 63.04,19.5192052 63.04,19.1265955 L63.04,7.43340455 C63.04,7.04079477 62.7271276,6.72 62.3442137,6.72 L60.5357863,6.72 C60.1528724,6.72 59.84,7.04079477 59.84,7.43340455 L59.84,19.1265955 C59.84,19.5192052 60.1528724,19.84 60.5357863,19.84" id="Fill-16"></path>
                </g>
                <g id="Logo">
                    <g id="Group-3">
                        <mask id="mask-2" fill="white">
                            <use xlink:href="#path-1"></use>
                        </mask>
                        <g id="Clip-2"></g>
                        <path d="M28.0000031,-1.25e-05 L4.00000313,-1.25e-05 C1.80000312,-1.25e-05 3.125e-06,1.7999875 3.125e-06,3.9999875 L3.125e-06,27.9999875 C3.125e-06,30.1999875 1.80000312,31.9999875 4.00000313,31.9999875 L28.0000031,31.9999875 C30.2000031,31.9999875 32.0000031,30.1999875 32.0000031,27.9999875 L32.0000031,3.9999875 C32.0000031,1.7999875 30.2000031,-1.25e-05 28.0000031,-1.25e-05" id="Fill-1" fill="#E44332" mask="url(#mask-2)"></path>
                    </g>
                    <path d="M6.83616875,14.9929531 C7.40141875,14.6671719 19.508075,7.70045312 19.7858875,7.53998437 C20.0631688,7.37995312 20.0770438,6.88889062 19.7668563,6.71185937 C19.456325,6.53485937 18.8668875,6.19998437 18.6475125,6.07164062 C18.4242625,5.94139062 18.0226375,5.86895312 17.6502,6.08348437 C17.495575,6.17270312 7.1488875,12.1219531 6.80304375,12.3185156 C6.389075,12.5538281 5.87685625,12.5568594 5.46429375,12.3181406 C5.138575,12.1295781 1.25e-05,9.14364062 1.25e-05,9.14364062 L1.25e-05,11.8422656 C1.3301375,12.6167969 4.6372,14.5429219 5.4387,14.9953906 C5.91704375,15.2654531 6.37495,15.2587969 6.83616875,14.9929531" id="Fill-4" fill="#FFFFFF"></path>
                    <path d="M6.83616875,20.3847375 C7.40141875,20.0589563 19.508075,13.0922688 19.7858875,12.9317688 C20.0631688,12.7717375 20.0770438,12.2807063 19.7668563,12.103675 C19.456325,11.9266438 18.8668875,11.5917688 18.6475125,11.463425 C18.4242625,11.333175 18.0226375,11.2607688 17.6502,11.4752688 C17.495575,11.5644875 7.1488875,17.5137688 6.80304375,17.7103313 C6.389075,17.9456125 5.87685625,17.948675 5.46429375,17.709925 C5.138575,17.5213625 1.25e-05,14.535425 1.25e-05,14.535425 L1.25e-05,17.23405 C1.3301375,18.0086125 4.6372,19.9347063 5.4387,20.387175 C5.91704375,20.6572688 6.37495,20.6505813 6.83616875,20.3847375" id="Fill-6" fill="#FFFFFF"></path>
                    <path d="M6.83616875,25.7765531 C7.40141875,25.4507719 19.508075,18.4840844 19.7858875,18.3235844 C20.0631688,18.1635531 20.0770438,17.6724906 19.7668563,17.4954594 C19.456325,17.3184594 18.8668875,16.9835844 18.6475125,16.8552406 C18.4242625,16.7249906 18.0226375,16.6525531 17.6502,16.8670844 C17.495575,16.9563031 7.1488875,22.9055531 6.80304375,23.1021156 C6.389075,23.3374281 5.87685625,23.3404594 5.46429375,23.1017406 C5.138575,22.9131781 1.25e-05,19.9272406 1.25e-05,19.9272406 L1.25e-05,22.6258656 C1.3301375,23.4003969 4.6372,25.3265219 5.4387,25.7789906 C5.91704375,26.0490531 6.37495,26.0423969 6.83616875,25.7765531" id="Fill-8" fill="#FFFFFF"></path>
                </g>
            </g>
            <circle id="Oval" fill="#9A9A9A" cx="248.36" cy="7.68" r="7.68"></circle>
            <text id="β" fill="#FFFFFF" font-family="Graphik-Regular, Graphik" font-size="14" font-weight="normal" letter-spacing="0.0933333486">
                <tspan x="241" y="10.32"> </tspan>
                <tspan x="244.803333" y="10.32" font-family="LucidaGrande, Lucida Grande">β</tspan>
            </text>
        </g>
    </g>
</svg>