<?xml version="1.0" encoding="UTF-8" standalone="no"?>
<svg width="179px" height="24px" viewBox="0 0 179 24" version="1.1" xmlns="http://www.w3.org/2000/svg" xmlns:xlink="http://www.w3.org/1999/xlink" xmlns:sketch="http://www.bohemiancoding.com/sketch/ns">
    <!-- Generator: Sketch 3.4.1 (15681) - http://www.bohemiancoding.com/sketch -->
    <title>Page 1</title>
    <desc>Created with Sketch.</desc>
    <defs>
        <path id="path-1" d="M0,0 L178.86312,0 L178.86312,24 L0,24 L0,0 Z"></path>
    </defs>
    <g id="Page-1" stroke="none" stroke-width="1" fill="none" fill-rule="evenodd" sketch:type="MSPage">
        <g id="Artboard-1-Copy-3" sketch:type="MSArtboardGroup" transform="translate(-22.000000, -16.000000)">
            <g id="Page-1" sketch:type="MSLayerGroup" transform="translate(22.000000, 16.000000)">
                <path d="M21,0 L3,0 C1.35,0 0,1.35 0,3 L0,6.8664 L0.00768,6.86232 C0.00768,6.86232 3.85392,9.0972 4.09824,9.23856 C4.4076,9.4176 4.79184,9.41544 5.10216,9.2388 C5.3616,9.09144 13.12176,4.6296 13.23768,4.56264 C13.51704,4.40184 13.81824,4.45608 13.98552,4.55376 C14.15016,4.65 14.59224,4.90104 14.82504,5.034 C15.05784,5.16672 15.04728,5.53488 14.83944,5.65488 C14.63112,5.77536 5.55096,11.0004 5.12712,11.24472 C4.78128,11.44416 4.43784,11.4492 4.07904,11.24664 C3.47784,10.90728 0.99768,9.46272 0,8.88168 L0,10.9104 L0.00768,10.90608 C0.00768,10.90608 3.85392,13.14096 4.09824,13.28256 C4.4076,13.4616 4.79184,13.4592 5.10216,13.2828 C5.3616,13.13544 13.12176,8.67336 13.23768,8.6064 C13.51704,8.4456 13.81824,8.49984 13.98552,8.59752 C14.15016,8.69376 14.59224,8.94504 14.82504,9.07776 C15.05784,9.21048 15.04728,9.57888 14.83944,9.69888 C14.63112,9.81912 5.55096,15.04416 5.12712,15.28848 C4.78128,15.48792 4.43784,15.49296 4.07904,15.2904 C3.47784,14.95104 0.99768,13.50648 0,12.92568 L0,14.95416 L0.00768,14.94984 C0.00768,14.94984 3.85392,17.18496 4.09824,17.32632 C4.4076,17.50536 4.79184,17.50296 5.10216,17.32656 C5.3616,17.1792 13.12176,12.71712 13.23768,12.6504 C13.51704,12.48936 13.81824,12.54384 13.98552,12.64152 C14.15016,12.73776 14.59224,12.9888 14.82504,13.12152 C15.05784,13.25448 15.04728,13.62264 14.83944,13.74264 C14.63112,13.86312 5.55096,19.08816 5.12712,19.33248 C4.78128,19.53168 4.43784,19.53672 4.07904,19.33416 C3.47784,18.9948 0.99768,17.55024 0,16.96944 L0,21 C0,22.65 1.35,24 3,24 L21,24 C22.65,24 24,22.65 24,21 L24,3 C24,1.35 22.65,0 21,0" id="Fill-1" fill="#E44332" sketch:type="MSShapeGroup"></path>
                <path d="M41.683584,14.264304 C41.683584,14.650704 41.749344,15.025344 41.881104,15.382944 C42.012624,15.744144 42.205104,16.061424 42.461664,16.338384 C42.718224,16.614864 43.025184,16.836144 43.384704,17.001264 C43.743984,17.166624 44.152704,17.249664 44.608224,17.249664 C45.063744,17.249664 45.471984,17.166624 45.831744,17.001264 C46.190784,16.836144 46.498224,16.614864 46.754784,16.338384 C47.009424,16.061424 47.203584,15.744144 47.335104,15.382944 C47.464944,15.025344 47.530704,14.650704 47.530704,14.264304 C47.530704,13.877904 47.464944,13.503264 47.335104,13.143744 C47.203584,12.784224 47.009424,12.467184 46.754784,12.190224 C46.498224,11.913744 46.190784,11.692464 45.831744,11.527104 C45.471984,11.361744 45.063744,11.277264 44.608224,11.277264 C44.152704,11.277264 43.743984,11.361744 43.384704,11.527104 C43.025184,11.692464 42.718224,11.913744 42.461664,12.190224 C42.205104,12.467184 42.012624,12.784224 41.881104,13.143744 C41.749344,13.503264 41.683584,13.877904 41.683584,14.264304 M39.196224,14.264304 C39.196224,13.476144 39.337824,12.760704 39.621744,12.117744 C39.903264,11.474544 40.288224,10.926144 40.772304,10.468944 C41.254944,10.013424 41.828784,9.660624 42.492144,9.411024 C43.156704,9.163104 43.860624,9.038064 44.608224,9.038064 C45.353904,9.038064 46.059504,9.163104 46.722624,9.411024 C47.385744,9.660624 47.959584,10.013424 48.443904,10.468944 C48.928224,10.926144 49.311504,11.474544 49.594704,12.117744 C49.878144,12.760704 50.019744,13.476144 50.019744,14.264304 C50.019744,15.052464 49.878144,15.767904 49.594704,16.410624 C49.311504,17.054064 48.928224,17.602224 48.443904,18.059664 C47.959584,18.515184 47.385744,18.867984 46.722624,19.115904 C46.059504,19.365504 45.353904,19.488864 44.608224,19.488864 C43.860624,19.488864 43.156704,19.365504 42.492144,19.115904 C41.828784,18.867984 41.254944,18.515184 40.772304,18.059664 C40.288224,17.602224 39.903264,17.054064 39.621744,16.410624 C39.337824,15.767904 39.196224,15.052464 39.196224,14.264304" id="Fill-3" fill="#E44332" sketch:type="MSShapeGroup"></path>
                <path d="M53.695272,14.264304 C53.695272,14.650704 53.761032,15.025344 53.892792,15.382944 C54.024312,15.744144 54.216792,16.061424 54.473112,16.338384 C54.729672,16.614864 55.036872,16.836144 55.396152,17.001264 C55.755672,17.166624 56.164152,17.249664 56.619912,17.249664 C57.075432,17.249664 57.483672,17.166624 57.843192,17.001264 C58.202472,16.836144 58.509912,16.614864 58.765992,16.338384 C59.021112,16.061424 59.215272,15.744144 59.346792,15.382944 C59.476632,15.025344 59.542392,14.650704 59.542392,14.264304 C59.542392,13.877904 59.476632,13.503264 59.346792,13.143744 C59.215272,12.784224 59.021112,12.467184 58.765992,12.190224 C58.509912,11.913744 58.202472,11.692464 57.843192,11.527104 C57.483672,11.361744 57.075432,11.277264 56.619912,11.277264 C56.164152,11.277264 55.755672,11.361744 55.396152,11.527104 C55.036872,11.692464 54.729672,11.913744 54.473112,12.190224 C54.216792,12.467184 54.024312,12.784224 53.892792,13.143744 C53.761032,13.503264 53.695272,13.877904 53.695272,14.264304 L53.695272,14.264304 Z M59.584632,17.747184 L59.542392,17.747184 C59.183112,18.356544 58.700712,18.798624 58.091352,19.075344 C57.483672,19.350384 56.827272,19.488864 56.122152,19.488864 C55.347432,19.488864 54.660552,19.355664 54.058152,19.085424 C53.457192,18.815664 52.942632,18.446064 52.513992,17.975184 C52.085352,17.505984 51.759672,16.952304 51.538632,16.316304 C51.317352,15.681744 51.207912,14.996784 51.207912,14.264304 C51.207912,13.531824 51.324312,12.846864 51.560712,12.210624 C51.795192,11.576064 52.122552,11.022624 52.544472,10.551744 C52.966152,10.082544 53.474232,9.712944 54.068232,9.443184 C54.663912,9.172944 55.313592,9.038064 56.017272,9.038064 C56.488152,9.038064 56.903112,9.087024 57.262872,9.183024 C57.622152,9.280944 57.939192,9.404304 58.216152,9.557904 C58.492632,9.709824 58.727592,9.871824 58.921512,10.043904 C59.113992,10.217424 59.274312,10.386384 59.397432,10.551744 L59.459832,10.551744 L59.459832,5.068224 C59.459832,4.820304 59.656872,4.527024 60.002472,4.527024 L61.407912,4.527024 C61.733112,4.527024 61.948872,4.800384 61.948872,5.068224 L61.948872,18.698544 C61.948872,19.044864 61.655352,19.240704 61.407912,19.240704 L60.128472,19.240704 C59.824152,19.240704 59.584632,18.984384 59.584632,18.699504 L59.584632,17.747184 Z" id="Fill-5" fill="#E44332" sketch:type="MSShapeGroup"></path>
                <path d="M66.063576,14.264304 C66.063576,14.650704 66.129336,15.025344 66.261096,15.382944 C66.392616,15.744144 66.585096,16.061424 66.841896,16.338384 C67.098216,16.614864 67.405416,16.836144 67.764696,17.001264 C68.123976,17.166624 68.532696,17.249664 68.988216,17.249664 C69.443736,17.249664 69.851976,17.166624 70.211736,17.001264 C70.571256,16.836144 70.878216,16.614864 71.134776,16.338384 C71.389656,16.061424 71.583576,15.744144 71.715096,15.382944 C71.845176,15.025344 71.910696,14.650704 71.910696,14.264304 C71.910696,13.877904 71.845176,13.503264 71.715096,13.143744 C71.583576,12.784224 71.389656,12.467184 71.134776,12.190224 C70.878216,11.913744 70.571256,11.692464 70.211736,11.527104 C69.851976,11.361744 69.443736,11.277264 68.988216,11.277264 C68.532696,11.277264 68.123976,11.361744 67.764696,11.527104 C67.405416,11.692464 67.098216,11.913744 66.841896,12.190224 C66.585096,12.467184 66.392616,12.784224 66.261096,13.143744 C66.129336,13.503264 66.063576,13.877904 66.063576,14.264304 M63.576216,14.264304 C63.576216,13.476144 63.717816,12.760704 64.001736,12.117744 C64.283256,11.474544 64.668216,10.926144 65.152296,10.468944 C65.634936,10.013424 66.208776,9.660624 66.872136,9.411024 C67.536696,9.163104 68.240616,9.038064 68.988216,9.038064 C69.733896,9.038064 70.439496,9.163104 71.102616,9.411024 C71.765736,9.660624 72.339576,10.013424 72.823896,10.468944 C73.308216,10.926144 73.691496,11.474544 73.974696,12.117744 C74.258136,12.760704 74.400216,13.476144 74.400216,14.264304 C74.400216,15.052464 74.258136,15.767904 73.974696,16.410624 C73.691496,17.054064 73.308216,17.602224 72.823896,18.059664 C72.339576,18.515184 71.765736,18.867984 71.102616,19.115904 C70.439496,19.365504 69.733896,19.488864 68.988216,19.488864 C68.240616,19.488864 67.536696,19.365504 66.872136,19.115904 C66.208776,18.867984 65.634936,18.515184 65.152296,18.059664 C64.668216,17.602224 64.283256,17.054064 64.001736,16.410624 C63.717816,15.767904 63.576216,15.052464 63.576216,14.264304" id="Fill-7" fill="#E44332" sketch:type="MSShapeGroup"></path>
                <path d="M75.654096,5.907624 C75.654096,5.506104 75.802656,5.158584 76.099536,4.859544 C76.398336,4.562664 76.774656,4.414104 77.230176,4.414104 C77.685936,4.414104 78.070416,4.555944 78.381216,4.839624 C78.691536,5.123064 78.848496,5.478984 78.848496,5.907624 C78.848496,6.336264 78.691536,6.692184 78.381216,6.975864 C78.070416,7.259304 77.685936,7.401144 77.230176,7.401144 C76.774656,7.401144 76.398336,7.252584 76.099536,6.954024 C75.802656,6.656904 75.654096,6.309384 75.654096,5.907624" id="Fill-9" fill="#E44332" sketch:type="MSShapeGroup"></path>
                <path d="M85.925472,12.044952 C85.677552,12.044952 85.494672,11.857032 85.463232,11.775192 C85.256112,11.233032 84.597072,11.029512 84.064992,11.029512 C83.225712,11.029512 82.566912,11.418552 82.566912,12.087432 C82.566912,12.734712 83.204352,12.866712 83.597952,12.985752 C84.030432,13.116792 84.855792,13.296792 85.310832,13.403592 C85.773552,13.512552 86.204352,13.672152 86.607072,13.881432 C87.928272,14.567112 88.116192,15.646392 88.116192,16.296072 C88.116192,18.693432 85.740912,19.488792 84.091632,19.488792 C82.820592,19.488792 80.432352,19.296312 79.907952,16.872552 C79.856832,16.636872 80.065872,16.274232 80.449152,16.274232 L81.822672,16.274232 C82.093152,16.274232 82.275312,16.471512 82.328352,16.626312 C82.504992,17.113272 83.066112,17.481192 84.012192,17.481192 C85.027152,17.481192 85.627152,17.078712 85.627152,16.543272 C85.627152,16.197432 85.430832,15.889272 85.174752,15.715752 C84.404832,15.193752 82.501392,15.134712 81.468192,14.584872 C81.072432,14.374392 80.079312,13.893192 80.079312,12.252792 C80.079312,9.991752 82.134912,9.037992 83.940672,9.037992 C86.603952,9.037992 87.581472,10.720872 87.691632,11.344392 C87.752592,11.688552 87.559872,12.044952 87.172512,12.044952 L85.925472,12.044952 Z" id="Fill-11" fill="#E44332" sketch:type="MSShapeGroup"></path>
                <path d="M88.364352,10.813176 L88.364352,9.783816 C88.364352,9.538296 88.558272,9.242856 88.901952,9.242856 L90.228672,9.242856 L90.228672,6.715656 C90.228672,6.445176 90.412272,6.280536 90.551232,6.220056 C90.633312,6.184056 91.375632,5.860296 91.968432,5.601816 C92.382432,5.431656 92.717952,5.772696 92.717952,6.101496 L92.717952,9.242856 L94.913952,9.242856 C95.253072,9.242856 95.455392,9.539016 95.455392,9.783816 L95.455392,10.814616 C95.455392,11.113176 95.188272,11.357016 94.914192,11.357016 L92.717952,11.357016 L92.717952,15.712776 C92.717952,16.210296 92.704032,16.599336 92.893872,16.886856 C93.068352,17.150376 93.324192,17.248056 93.836832,17.248056 C93.983712,17.248056 94.114992,17.223576 94.225872,17.185896 C94.551072,17.074536 94.794192,17.264616 94.876512,17.424216 C95.038752,17.737416 95.224032,18.081816 95.353872,18.328536 C95.496672,18.599496 95.381952,18.946776 95.120832,19.073256 C94.699632,19.277976 94.116432,19.444056 93.316272,19.444056 C92.653152,19.444056 92.277552,19.371336 91.857312,19.226136 C91.435632,19.080936 91.035552,18.773256 90.794352,18.476136 C90.551472,18.179256 90.431232,17.781576 90.341712,17.339256 C90.250272,16.897416 90.228672,16.360776 90.228672,15.778776 L90.228672,11.357016 L88.905552,11.357016 C88.558272,11.357016 88.364352,11.056536 88.364352,10.813176" id="Fill-13" fill="#E44332" sketch:type="MSShapeGroup"></path>
                <path d="M31.391496,10.813176 L31.391496,9.783816 C31.391496,9.538296 31.585416,9.242856 31.929096,9.242856 L33.445176,9.242856 L33.445176,6.715656 C33.445176,6.445176 33.628536,6.280536 33.767496,6.220056 C33.849816,6.184056 34.591896,5.860296 35.184696,5.601816 C35.598696,5.431656 35.934216,5.772696 35.934216,6.101496 L35.934216,9.242856 L38.130456,9.242856 C38.469336,9.242856 38.671656,9.539016 38.671656,9.783816 L38.671656,10.814616 C38.671656,11.113176 38.404536,11.357016 38.130456,11.357016 L35.934216,11.357016 L35.934216,15.712776 C35.934216,16.210296 35.920296,16.599336 36.110376,16.886856 C36.284616,17.150376 36.540456,17.248056 37.053096,17.248056 C37.199976,17.248056 37.331256,17.223576 37.442136,17.185896 C37.767336,17.074536 38.010456,17.264616 38.093016,17.424216 C38.255016,17.737416 38.440536,18.081816 38.570136,18.328536 C38.712936,18.599496 38.598216,18.946776 38.337096,19.073256 C37.915896,19.277976 37.332936,19.444056 36.532776,19.444056 C35.869416,19.444056 35.493816,19.371336 35.073816,19.226136 C34.651896,19.080936 34.252056,18.773256 34.010616,18.476136 C33.767736,18.179256 33.647496,17.781576 33.557976,17.339256 C33.466776,16.897416 33.445176,16.360776 33.445176,15.778776 L33.445176,11.357016 L31.932696,11.357016 C31.585416,11.357016 31.391496,11.056536 31.391496,10.813176" id="Fill-15" fill="#E44332" sketch:type="MSShapeGroup"></path>
                <path d="M76.547928,19.240704 L77.954568,19.240704 C78.252408,19.240704 78.495768,18.997344 78.495768,18.699504 L78.495768,9.828864 C78.495768,9.531024 78.252408,9.287664 77.954568,9.287664 L76.547928,9.287664 C76.250088,9.287664 76.006728,9.531024 76.006728,9.828864 L76.006728,18.699504 C76.006728,18.997344 76.250088,19.240704 76.547928,19.240704" id="Fill-17" fill="#E44332" sketch:type="MSShapeGroup"></path>
                <path d="M106.18704,17.476776 C108.87528,17.476776 110.16912,15.930936 110.16912,13.276296 L110.16912,13.141896 C110.16912,10.554216 108.99288,8.991816 106.17048,8.991816 L104.87664,8.991816 L104.87664,17.476776 L106.18704,17.476776 Z M102.642,7.227576 L106.28808,7.227576 C110.47176,7.227576 112.50456,9.613416 112.50456,13.108056 L112.50456,13.259496 C112.50456,16.753896 110.47176,19.240776 106.25424,19.240776 L102.642,19.240776 L102.642,7.227576 Z" id="Fill-19" fill="#B3B5B8" sketch:type="MSShapeGroup"></path>
                <path d="M119.879232,13.931616 C119.778192,12.419376 119.005392,11.747136 117.745152,11.747136 C116.518752,11.747136 115.695312,12.570336 115.493952,13.931616 L119.879232,13.931616 Z M113.376672,14.939376 L113.376672,14.804976 C113.376672,12.083376 115.241952,10.268736 117.745152,10.268736 C119.929632,10.268736 121.895232,11.562576 121.895232,14.704176 L121.895232,15.292416 L115.460352,15.292416 C115.527312,16.955616 116.367552,17.896656 117.879792,17.896656 C119.106192,17.896656 119.744592,17.409216 119.895792,16.552416 L121.861872,16.552416 C121.576032,18.400656 120.080832,19.408896 117.829392,19.408896 C115.241952,19.408896 113.376672,17.711616 113.376672,14.939376 L113.376672,14.939376 Z" id="Fill-21" fill="#B3B5B8" sketch:type="MSShapeGroup"></path>
                <path d="M122.129448,10.453512 L124.313928,10.453512 L126.615528,17.157672 L128.884008,10.453512 L130.883448,10.453512 L127.707768,19.240632 L125.338728,19.240632 L122.129448,10.453512 Z" id="Fill-23" fill="#B3B5B8" sketch:type="MSShapeGroup"></path>
                <path d="M137.468592,13.931616 C137.367792,12.419376 136.594992,11.747136 135.334752,11.747136 C134.108352,11.747136 133.284912,12.570336 133.083552,13.931616 L137.468592,13.931616 Z M130.966272,14.939376 L130.966272,14.804976 C130.966272,12.083376 132.831552,10.268736 135.334752,10.268736 C137.519232,10.268736 139.484832,11.562576 139.484832,14.704176 L139.484832,15.292416 L133.049952,15.292416 C133.116912,16.955616 133.957152,17.896656 135.469392,17.896656 C136.695792,17.896656 137.334192,17.409216 137.485392,16.552416 L139.451472,16.552416 C139.165632,18.400656 137.670432,19.408896 135.418992,19.408896 C132.831552,19.408896 130.966272,17.711616 130.966272,14.939376 L130.966272,14.939376 Z" id="Fill-25" fill="#B3B5B8" sketch:type="MSShapeGroup"></path>
                <mask id="mask-2" sketch:name="Clip 28" fill="white">
                    <use xlink:href="#path-1"></use>
                </mask>
                <g id="Clip-28"></g>
                <path d="M140.84472,6.3876 L142.87776,6.3876 L142.87776,19.2408 L140.84472,19.2408 L140.84472,6.3876 Z" id="Fill-27" fill="#B3B5B8" sketch:type="MSShapeGroup" mask="url(#mask-2)"></path>
                <path d="M151.194072,14.90616 L151.194072,14.78856 C151.194072,12.97392 150.286872,11.86488 148.774632,11.86488 C147.262632,11.86488 146.338632,12.95712 146.338632,14.77152 L146.338632,14.90616 C146.338632,16.70376 147.229032,17.82936 148.774632,17.82936 C150.286872,17.82936 151.194072,16.70376 151.194072,14.90616 M144.254952,14.93952 L144.254952,14.80488 C144.254952,12.08328 146.187432,10.26888 148.774632,10.26888 C151.345512,10.26888 153.277752,12.06648 153.277752,14.75472 L153.277752,14.88936 C153.277752,17.62776 151.345512,19.40904 148.758072,19.40904 C146.170392,19.40904 144.254952,17.61096 144.254952,14.93952" id="Fill-29" fill="#B3B5B8" sketch:type="MSShapeGroup" mask="url(#mask-2)"></path>
                <path d="M161.324232,14.90616 L161.324232,14.77152 C161.324232,12.82248 160.316232,11.86488 158.989032,11.86488 C157.577592,11.86488 156.569352,12.82248 156.569352,14.77152 L156.569352,14.90616 C156.569352,16.87152 157.527192,17.796 159.005832,17.796 C160.501032,17.796 161.324232,16.78776 161.324232,14.90616 L161.324232,14.90616 Z M154.603752,10.45344 L156.636792,10.45344 L156.636792,11.86488 C157.123992,11.02488 158.215992,10.26888 159.509592,10.26888 C161.710632,10.26888 163.407912,11.89872 163.407912,14.73792 L163.407912,14.87232 C163.407912,17.6952 161.778072,19.40904 159.509592,19.40904 C158.115192,19.40904 157.107192,18.72 156.636792,17.86296 L156.636792,22.24824 L154.603752,22.24824 L154.603752,10.45344 Z" id="Fill-30" fill="#B3B5B8" sketch:type="MSShapeGroup" mask="url(#mask-2)"></path>
                <path d="M170.648136,13.931616 C170.547336,12.419376 169.774536,11.747136 168.514296,11.747136 C167.287896,11.747136 166.464456,12.570336 166.263096,13.931616 L170.648136,13.931616 Z M164.145816,14.939376 L164.145816,14.804976 C164.145816,12.083376 166.011096,10.268736 168.514296,10.268736 C170.698776,10.268736 172.664376,11.562576 172.664376,14.704176 L172.664376,15.292416 L166.229496,15.292416 C166.296456,16.955616 167.136696,17.896656 168.648936,17.896656 C169.875336,17.896656 170.513736,17.409216 170.664936,16.552416 L172.631016,16.552416 C172.345176,18.400656 170.849976,19.408896 168.598536,19.408896 C166.011096,19.408896 164.145816,17.711616 164.145816,14.939376 L164.145816,14.939376 Z" id="Fill-31" fill="#B3B5B8" sketch:type="MSShapeGroup" mask="url(#mask-2)"></path>
                <path d="M173.973912,10.453512 L176.006952,10.453512 L176.006952,12.100152 C176.561112,10.991112 177.384552,10.335912 178.863192,10.318872 L178.863192,12.217992 C177.082152,12.234312 176.006952,12.805752 176.006952,14.670792 L176.006952,19.240632 L173.973912,19.240632 L173.973912,10.453512 Z" id="Fill-32" fill="#B3B5B8" sketch:type="MSShapeGroup" mask="url(#mask-2)"></path>
            </g>
        </g>
    </g>
</svg>