<?xml version="1.0" encoding="UTF-8"?>
<svg width="797px" height="100px" viewBox="0 0 797 100" version="1.1" xmlns="http://www.w3.org/2000/svg" xmlns:xlink="http://www.w3.org/1999/xlink">
    <!-- Generator: Sketch 45.1 (43504) - http://www.bohemiancoding.com/sketch -->
    <title>Todoist_Developer_Beta3</title>
    <desc>Created with Sketch.</desc>
    <defs>
        <polygon id="path-1" points="9.76562501e-06 0 100 0 100 99.9999609 9.76562501e-06 99.9999609"></polygon>
        <circle id="path-3" cx="24" cy="24" r="24"></circle>
    </defs>
    <g id="Subbrand-Lockups" stroke="none" stroke-width="1" fill="none" fill-rule="evenodd">
        <g id="Todoist_Developer_Beta3">
            <path d="M436.561719,72.34 L442.021719,72.34 C453.221719,72.34 458.611719,65.9 458.611719,54.84 L458.611719,54.28 C458.611719,43.5 453.711719,36.99 441.951719,36.99 L436.561719,36.99 L436.561719,72.34 Z M427.251719,79.69 L427.251719,29.64 L442.441719,29.64 C459.871719,29.64 468.341719,39.58 468.341719,54.14 L468.341719,54.77 C468.341719,69.33 459.871719,79.69 442.301719,79.69 L427.251719,79.69 Z M490.281719,80.39 C479.501719,80.39 471.731719,73.32 471.731719,61.77 L471.731719,61.21 C471.731719,49.87 479.501719,42.31 489.931719,42.31 C499.031719,42.31 507.221719,47.7 507.221719,60.79 L507.221719,63.24 L480.411719,63.24 C480.691719,70.17 484.191719,74.09 490.491719,74.09 C495.601719,74.09 498.261719,72.06 498.891719,68.49 L507.081719,68.49 C505.891719,76.19 499.661719,80.39 490.281719,80.39 Z M480.551719,57.57 L498.821719,57.57 C498.401719,51.27 495.181719,48.47 489.931719,48.47 C484.821719,48.47 481.391719,51.9 480.551719,57.57 Z M521.321719,79.69 L531.191719,79.69 L544.421719,43.08 L536.091719,43.08 L526.641719,71.01 L517.051719,43.08 L507.951719,43.08 L521.321719,79.69 Z M563.071719,80.39 C552.291719,80.39 544.521719,73.32 544.521719,61.77 L544.521719,61.21 C544.521719,49.87 552.291719,42.31 562.721719,42.31 C571.821719,42.31 580.011719,47.7 580.011719,60.79 L580.011719,63.24 L553.201719,63.24 C553.481719,70.17 556.981719,74.09 563.281719,74.09 C568.391719,74.09 571.051719,72.06 571.681719,68.49 L579.871719,68.49 C578.681719,76.19 572.451719,80.39 563.071719,80.39 Z M553.341719,57.57 L571.611719,57.57 C571.191719,51.27 567.971719,48.47 562.721719,48.47 C557.611719,48.47 554.181719,51.9 553.341719,57.57 Z M585.431719,79.69 L593.901719,79.69 L593.901719,26.14 L585.431719,26.14 L585.431719,79.69 Z M618.221719,73.81 C624.521719,73.81 628.301719,69.12 628.301719,61.63 L628.301719,61.14 C628.301719,53.58 624.521719,48.96 618.221719,48.96 C611.921719,48.96 608.071719,53.51 608.071719,61.07 L608.071719,61.63 C608.071719,69.12 611.781719,73.81 618.221719,73.81 Z M618.151719,80.39 C607.371719,80.39 599.391719,72.9 599.391719,61.77 L599.391719,61.21 C599.391719,49.87 607.441719,42.31 618.221719,42.31 C628.931719,42.31 636.981719,49.8 636.981719,61 L636.981719,61.56 C636.981719,72.97 628.931719,80.39 618.151719,80.39 Z M642.261719,92.22 L642.261719,43.08 L650.731719,43.08 L650.731719,48.96 C652.761719,45.46 657.311719,42.31 662.701719,42.31 C671.871719,42.31 678.941719,49.1 678.941719,60.93 L678.941719,61.49 C678.941719,73.25 672.151719,80.39 662.701719,80.39 C656.891719,80.39 652.691719,77.52 650.731719,73.95 L650.731719,92.22 L642.261719,92.22 Z M660.601719,73.67 C666.831719,73.67 670.261719,69.47 670.261719,61.63 L670.261719,61.07 C670.261719,52.95 666.061719,48.96 660.531719,48.96 C654.651719,48.96 650.451719,52.95 650.451719,61.07 L650.451719,61.63 C650.451719,69.82 654.441719,73.67 660.601719,73.67 Z M700.321719,80.39 C689.541719,80.39 681.771719,73.32 681.771719,61.77 L681.771719,61.21 C681.771719,49.87 689.541719,42.31 699.971719,42.31 C709.071719,42.31 717.261719,47.7 717.261719,60.79 L717.261719,63.24 L690.451719,63.24 C690.731719,70.17 694.231719,74.09 700.531719,74.09 C705.641719,74.09 708.301719,72.06 708.931719,68.49 L717.121719,68.49 C715.931719,76.19 709.701719,80.39 700.321719,80.39 Z M690.591719,57.57 L708.861719,57.57 C708.441719,51.27 705.221719,48.47 699.971719,48.47 C694.861719,48.47 691.431719,51.9 690.591719,57.57 Z M722.47172,79.69 L730.94172,79.69 L730.94172,60.65 C730.94172,52.88 735.42172,50.5 742.84172,50.43 L742.84172,42.52 C736.68172,42.59 733.25172,45.32 730.94172,49.94 L730.94172,43.08 L722.47172,43.08 L722.47172,79.69 Z" id="Developer" fill="#C4C4C4"></path>
            <g id="TodoistLogo">
                <g id="Wordmark" transform="translate(130.000000, 18.000000)" fill="#E44332">
                    <path d="M43,41.5035162 C43,43.1209564 43.2699175,44.6891702 43.8107376,46.1860559 C44.3505726,47.6980108 45.1406231,49.0261202 46.1936954,50.1854531 C47.2467676,51.3427768 48.506711,52.2690376 49.9823913,52.960217 C51.4570866,53.652401 53.1347125,54 55.004433,54 C56.8741534,54 58.5498091,53.652401 60.0264746,52.960217 C61.5001847,52.2690376 62.7620983,51.3427768 63.8151705,50.1854531 C64.860362,49.0261202 65.6573082,47.6980108 66.1971432,46.1860559 C66.7300825,44.6891702 67,43.1209564 67,41.5035162 C67,39.8860759 66.7300825,38.3178622 66.1971432,36.8129395 C65.6573082,35.3080169 64.860362,33.9809122 63.8151705,32.8215793 C62.7620983,31.6642556 61.5001847,30.7379948 60.0264746,30.0458107 C58.5498091,29.3536267 56.8741534,29 55.004433,29 C53.1347125,29 51.4570866,29.3536267 49.9823913,30.0458107 C48.506711,30.7379948 47.2467676,31.6642556 46.1936954,32.8215793 C45.1406231,33.9809122 44.3505726,35.3080169 43.8107376,36.8129395 C43.2699175,38.3178622 43,39.8860759 43,41.5035162 M33,42.0035366 C33,38.6852222 33.5887179,35.6730738 34.7691472,32.9660811 C35.9395982,30.2580779 37.5401126,27.949202 39.5527296,26.0242967 C41.5593596,24.1064646 43.9451639,22.6211046 46.7031576,21.5702377 C49.4661404,20.5264439 52.3927669,20 55.5009978,20 C58.6012462,20 61.5348574,20.5264439 64.2918533,21.5702377 C67.0488492,22.6211046 69.4346534,24.1064646 71.4482682,26.0242967 C73.461883,27.949202 75.0554127,30.2580779 76.2328485,32.9660811 C77.4112821,35.6730738 78,38.6852222 78,42.0035366 C78,45.321851 77.4112821,48.3339993 76.2328485,51.0399816 C75.0554127,53.7489953 73.461883,56.0568607 71.4482682,57.9827764 C69.4346534,59.9006086 67.0488492,61.3859685 64.2918533,62.4297623 C61.5348574,63.4806292 58.6012462,64 55.5009978,64 C52.3927669,64 49.4661404,63.4806292 46.7031576,62.4297623 C43.9451639,61.3859685 41.5593596,59.9006086 39.5527296,57.9827764 C37.5401126,56.0568607 35.9395982,53.7489953 34.7691472,51.0399816 C33.5887179,48.3339993 33,45.321851 33,42.0035366" id="Fill-2"></path>
                    <path d="M93,41.5035162 C93,43.1209564 93.2699175,44.6891702 93.8107376,46.1860559 C94.3505726,47.6980108 95.1406231,49.0261202 96.1927103,50.1854531 C97.2457825,51.3427768 98.506711,52.2690376 99.9814062,52.960217 C101.457087,53.652401 103.133727,54 105.004433,54 C106.873168,54 108.549809,53.652401 110.025489,52.960217 C111.500185,52.2690376 112.762098,51.3427768 113.8132,50.1854531 C114.860362,49.0261202 115.657308,47.6980108 116.197143,46.1860559 C116.730083,44.6891702 117,43.1209564 117,41.5035162 C117,39.8860759 116.730083,38.3178622 116.197143,36.8129395 C115.657308,35.3080169 114.860362,33.9809122 113.8132,32.8215793 C112.762098,31.6642556 111.500185,30.7379948 110.025489,30.0458107 C108.549809,29.3536267 106.873168,29 105.004433,29 C103.133727,29 101.457087,29.3536267 99.9814062,30.0458107 C98.506711,30.7379948 97.2457825,31.6642556 96.1927103,32.8215793 C95.1406231,33.9809122 94.3505726,35.3080169 93.8107376,36.8129395 C93.2699175,38.3178622 93,39.8860759 93,41.5035162 L93,41.5035162 Z M118.094852,55.7826952 L117.917884,55.7826952 C116.412656,58.3078071 114.391607,60.1397315 111.838651,61.2864247 C109.292734,62.4261561 106.5427,63 103.588551,63 C100.342807,63 97.4650757,62.4480358 94.941279,61.3281949 C92.4235152,60.2103431 90.2677303,58.6787668 88.4719131,56.7274988 C86.676096,54.7831924 85.3116369,52.4888115 84.3855745,49.8533068 C83.4585065,47.2237693 83,44.3853804 83,41.3500746 C83,38.3147688 83.4876659,35.4763799 84.4780802,32.8398807 C85.4604505,30.2103431 86.831948,27.9169567 88.5996112,25.9656887 C90.3662689,24.0213824 92.4949055,22.4898061 94.9835099,21.3719543 C97.4791527,20.2521134 100.201032,19.6931875 103.149149,19.6931875 C105.121933,19.6931875 106.860437,19.8960716 108.367677,20.2938836 C109.872905,20.6996519 111.201166,21.2108404 112.36151,21.8473396 C113.519842,22.4768772 114.504223,23.148185 115.316664,23.8612631 C116.123073,24.5803083 116.794745,25.2804575 117.310564,25.9656887 L117.571994,25.9656887 L117.571994,3.24266534 C117.571994,2.21531576 118.397506,1 119.845422,1 L125.73361,1 C127.096058,1 128,2.13276977 128,3.24266534 L128,59.7250124 C128,61.1601193 126.770278,61.9716559 125.73361,61.9716559 L120.373307,61.9716559 C119.098338,61.9716559 118.094852,60.9094978 118.094852,59.7289906 L118.094852,55.7826952 Z" id="Fill-4"></path>
                    <path d="M145,41.5035162 C145,43.1209564 145.269917,44.6891702 145.810738,46.1860559 C146.350573,47.6980108 147.140623,49.0261202 148.19468,50.1854531 C149.246768,51.3427768 150.507696,52.2690376 151.982391,52.960217 C153.457087,53.652401 155.134712,54 157.004433,54 C158.874153,54 160.549809,53.652401 162.026475,52.960217 C163.502155,52.2690376 164.762098,51.3427768 165.815171,50.1854531 C166.861347,49.0261202 167.657308,47.6980108 168.197143,46.1860559 C168.731068,44.6891702 169,43.1209564 169,41.5035162 C169,39.8860759 168.731068,38.3178622 168.197143,36.8129395 C167.657308,35.3080169 166.861347,33.9809122 165.815171,32.8215793 C164.762098,31.6642556 163.502155,30.7379948 162.026475,30.0458107 C160.549809,29.3536267 158.874153,29 157.004433,29 C155.134712,29 153.457087,29.3536267 151.982391,30.0458107 C150.507696,30.7379948 149.246768,31.6642556 148.19468,32.8215793 C147.140623,33.9809122 146.350573,35.3080169 145.810738,36.8129395 C145.269917,38.3178622 145,39.8860759 145,41.5035162 M135,42.0035366 C135,38.6852222 135.588692,35.6730738 136.769069,32.9660811 C137.939468,30.2580779 139.539911,27.949202 141.552439,26.0242967 C143.55898,24.1064646 145.944678,22.6211046 148.70255,21.5702377 C151.46541,20.5264439 154.391907,20 157.5,20 C160.600111,20 163.533592,20.5264439 166.290466,21.5702377 C169.047339,22.6211046 171.433038,24.1064646 173.446563,26.0242967 C175.460089,27.949202 177.053548,30.2580779 178.230931,32.9660811 C179.409313,35.6730738 180,38.6852222 180,42.0035366 C180,45.321851 179.409313,48.3339993 178.230931,51.0399816 C177.053548,53.7489953 175.460089,56.0568607 173.446563,57.9827764 C171.433038,59.9006086 169.047339,61.3859685 166.290466,62.4297623 C163.533592,63.4806292 160.600111,64 157.5,64 C154.391907,64 151.46541,63.4806292 148.70255,62.4297623 C145.944678,61.3859685 143.55898,59.9006086 141.552439,57.9827764 C139.539911,56.0568607 137.939468,53.7489953 136.769069,51.0399816 C135.588692,48.3339993 135,45.321851 135,42.0035366" id="Fill-6"></path>
                    <path d="M185,6 C185,4.38695163 185.604583,2.99084043 186.812772,1.7894906 C188.028775,0.596818255 189.560255,0 191.41405,0 C193.26882,0 194.833509,0.569821629 196.098347,1.70946489 C197.361232,2.84814398 198,4.27800096 198,6 C198,7.72199904 197.361232,9.15185602 196.098347,10.2914993 C194.833509,11.4301784 193.26882,12 191.41405,12 C189.560255,12 188.028775,11.4031817 186.812772,10.2037602 C185.604583,9.01012373 185,7.61401253 185,6" id="Fill-8"></path>
                    <path d="M227.934059,32.659915 C226.908082,32.659915 226.151262,31.8687335 226.021153,31.5241704 C225.16402,29.2415662 222.436689,28.3847055 220.234762,28.3847055 C216.761537,28.3847055 214.035199,30.0226432 214.035199,32.8387645 C214.035199,35.5639453 216.673142,36.1196923 218.301992,36.620875 C220.091741,37.1725801 223.50736,37.9304168 225.39047,38.3800666 C227.305362,38.8388104 229.088158,39.510759 230.75475,40.3918705 C236.222323,43.2787232 237,47.8217017 237,50.5579975 C237,60.6513721 227.170287,64 220.345007,64 C215.085013,64 205.201667,63.1896199 203.031522,52.9850959 C202.81997,51.992835 203.685049,50.4660466 205.271191,50.4660466 L210.955282,50.4660466 C212.07462,50.4660466 212.82846,51.2966357 213.047957,51.9483752 C213.778954,53.9985762 216.101058,55.5475944 220.016258,55.5475944 C224.216506,55.5475944 226.699509,53.8530715 226.699509,51.5987599 C226.699509,50.142703 225.887071,48.8452865 224.827325,48.1147319 C221.641135,45.9170054 213.764056,45.668435 209.488324,43.3534964 C207.850535,42.4673326 203.740668,40.4413825 203.740668,33.5349638 C203.740668,24.0155242 212.247437,20 219.720284,20 C230.741839,20 234.787147,27.0852681 235.243027,29.7104145 C235.4953,31.1593983 234.697759,32.659915 233.094732,32.659915 L227.934059,32.659915 Z" id="Fill-10"></path>
                    <path d="M238,26.9538603 L238,22.6548254 C238,21.6294319 238.820416,20.3955518 240.27442,20.3955518 L245.887362,20.3955518 L245.887362,9.84091491 C245.887362,8.71127809 246.664117,8.02367307 247.252014,7.77108347 C247.599269,7.62073251 250.739796,6.26857628 253.247749,5.18905644 C254.999255,4.47839761 256.418737,5.9027223 256.418737,7.27592766 L256.418737,20.3955518 L265.709335,20.3955518 C267.144047,20.3955518 268,21.6324389 268,22.6548254 L268,26.9598744 C268,28.2067849 266.869898,29.225162 265.71035,29.225162 L256.418737,29.225162 L256.418737,47.4166249 C256.418737,49.4944751 256.359846,51.1192677 257.163,52.3200707 C257.901171,53.4206396 258.983551,53.8285919 261.152373,53.8285919 C261.773776,53.8285919 262.329182,53.7263533 262.798281,53.5689859 C264.174101,53.1039003 265.202667,53.8977533 265.550938,54.5643092 C266.237325,55.8723625 267.021187,57.31072 267.5705,58.3411252 C268.174643,59.4727667 267.689298,60.9231522 266.58458,61.4513852 C264.802613,62.3063809 262.335274,63 258.950044,63 C256.144588,63 254.555541,62.6962911 252.777635,62.0898756 C250.993637,61.4834601 249.301022,60.1984606 248.280579,58.9575641 C247.253029,57.7176699 246.744331,56.056793 246.365599,54.209481 C245.978745,52.3641736 245.887362,50.1229421 245.887362,47.6922684 L245.887362,29.225162 L240.28965,29.225162 C238.820416,29.225162 238,27.9702328 238,26.9538603" id="Fill-12"></path>
                    <path d="M1,26.9538603 L1,22.6548254 C1,21.6294319 1.79910332,20.3955518 3.21533593,20.3955518 L9.46278104,20.3955518 L9.46278104,9.84091491 C9.46278104,8.71127809 10.2183688,8.02367307 10.7909936,7.77108347 C11.1302169,7.62073251 14.1881717,6.26857628 16.6309751,5.18905644 C18.3369816,4.47839761 19.7195886,5.9027223 19.7195886,7.27592766 L19.7195886,20.3955518 L28.7698292,20.3955518 C30.1662821,20.3955518 31,21.6324389 31,22.6548254 L31,26.9598744 C31,28.2067849 29.899255,29.225162 28.7698292,29.225162 L19.7195886,29.225162 L19.7195886,47.4166249 C19.7195886,49.4944751 19.6622272,51.1192677 20.4455067,52.3200707 C21.1635129,53.4206396 22.2177754,53.8285919 24.3302565,53.8285919 C24.9355179,53.8285919 25.476495,53.7263533 25.9334081,53.5689859 C27.2734885,53.1039003 28.2753346,53.8977533 28.6155469,54.5643092 C29.2831147,55.8723625 30.0476033,57.31072 30.5816575,58.3411252 C31.1701062,59.4727667 30.6973693,60.9231522 29.621349,61.4513852 C27.8856728,62.3063809 25.4834179,63 22.1861278,63 C19.4525615,63 17.9047933,62.6962911 16.1740621,62.0898756 C14.435419,61.4834601 12.7877629,60.1984606 11.7928397,58.9575641 C10.7919826,57.7176699 10.296499,56.056793 9.92760599,54.209481 C9.55179007,52.3641736 9.46278104,50.1229421 9.46278104,47.6922684 L9.46278104,29.225162 L3.23017077,29.225162 C1.79910332,29.225162 1,27.9702328 1,26.9538603" id="Fill-14"></path>
                    <path d="M189.174332,62 L194.825668,62 C196.022274,62 197,60.9975163 197,59.7706108 L197,23.2293892 C197,22.0024837 196.022274,21 194.825668,21 L189.174332,21 C187.977726,21 187,22.0024837 187,23.2293892 L187,59.7706108 C187,60.9975163 187.977726,62 189.174332,62" id="Fill-16"></path>
                </g>
                <g id="Logo">
                    <g id="Group-3">
                        <mask id="mask-2" fill="white">
                            <use xlink:href="#path-1"></use>
                        </mask>
                        <g id="Clip-2"></g>
                        <path d="M87.5000098,-3.90625e-05 L12.5000098,-3.90625e-05 C5.62500977,-3.90625e-05 9.76562501e-06,5.62496094 9.76562501e-06,12.4999609 L9.76562501e-06,87.4999609 C9.76562501e-06,94.3749609 5.62500977,99.9999609 12.5000098,99.9999609 L87.5000098,99.9999609 C94.3750098,99.9999609 100.00001,94.3749609 100.00001,87.4999609 L100.00001,12.4999609 C100.00001,5.62496094 94.3750098,-3.90625e-05 87.5000098,-3.90625e-05" id="Fill-1" fill="#E44332" mask="url(#mask-2)"></path>
                    </g>
                    <path d="M21.3630273,46.8529785 C23.1294336,45.8349121 60.9627344,24.063916 61.8308984,23.5624512 C62.6974023,23.0623535 62.7407617,21.5277832 61.7714258,20.9745605 C60.8010156,20.4214355 58.9590234,19.3749512 58.2734766,18.973877 C57.5758203,18.5668457 56.3207422,18.3404785 55.156875,19.0108887 C54.6736719,19.2896973 22.3402734,37.8811035 21.2595117,38.4953613 C19.9658594,39.2307129 18.3651758,39.2401855 17.075918,38.4941895 C16.0580469,37.9049316 3.90625e-05,28.573877 3.90625e-05,28.573877 L3.90625e-05,37.0070801 C4.15667969,39.4274902 14.49125,45.4466309 16.9959375,46.8605957 C18.4907617,47.704541 19.9217188,47.6837402 21.3630273,46.8529785" id="Fill-4" fill="#FFFFFF"></path>
                    <path d="M21.3630273,63.7023047 C23.1294336,62.6842383 60.9627344,40.9133398 61.8308984,40.4117773 C62.6974023,39.9116797 62.7407617,38.377207 61.7714258,37.8239844 C60.8010156,37.2707617 58.9590234,36.2242773 58.2734766,35.8232031 C57.5758203,35.4161719 56.3207422,35.1899023 55.156875,35.8602148 C54.6736719,36.1390234 22.3402734,54.7305273 21.2595117,55.3447852 C19.9658594,56.0800391 18.3651758,56.0896094 17.075918,55.3435156 C16.0580469,54.7542578 3.90625e-05,45.4232031 3.90625e-05,45.4232031 L3.90625e-05,53.8564063 C4.15667969,56.2769141 14.49125,62.295957 16.9959375,63.7099219 C18.4907617,64.5539648 19.9217188,64.5330664 21.3630273,63.7023047" id="Fill-6" fill="#FFFFFF"></path>
                    <path d="M21.3630273,80.5517285 C23.1294336,79.5336621 60.9627344,57.7627637 61.8308984,57.2612012 C62.6974023,56.7611035 62.7407617,55.2265332 61.7714258,54.6733105 C60.8010156,54.1201855 58.9590234,53.0737012 58.2734766,52.672627 C57.5758203,52.2655957 56.3207422,52.0392285 55.156875,52.7096387 C54.6736719,52.9884473 22.3402734,71.5798535 21.2595117,72.1941113 C19.9658594,72.9294629 18.3651758,72.9389355 17.075918,72.1929395 C16.0580469,71.6036816 3.90625e-05,62.272627 3.90625e-05,62.272627 L3.90625e-05,70.7058301 C4.15667969,73.1262402 14.49125,79.1453809 16.9959375,80.5593457 C18.4907617,81.403291 19.9217188,81.3824902 21.3630273,80.5517285" id="Fill-8" fill="#FFFFFF"></path>
                </g>
            </g>
            <g id="BetaBadge" transform="translate(749.000000, 0.000000)">
                <mask id="mask-4" fill="white">
                    <use xlink:href="#path-3"></use>
                </mask>
                <use id="Oval" fill="#9A9A9A" xlink:href="#path-3"></use>
                <path d="M16.082181,48.9077148 L16.082181,19.8994141 C16.082181,16.4293446 16.8629349,13.7267349 18.4244662,11.7915039 C19.9859974,9.85627288 22.1614314,8.88867188 24.9508334,8.88867188 C27.2464178,8.88867188 29.1015424,9.48925181 30.5162631,10.6904297 C31.9309837,11.8916076 32.6383334,13.4731347 32.6383334,15.4350586 C32.6383334,17.0099363 32.1845619,18.4613378 31.2770052,19.7893066 C30.3694486,21.1172755 29.0148072,22.3217719 27.2130404,23.402832 C29.6020497,24.163578 31.4738572,25.341382 32.8285189,26.9362793 C34.1831806,28.5311766 34.8605013,30.3562723 34.8605013,32.4116211 C34.8605013,35.0675589 33.9429487,37.2463294 32.1078158,38.947998 C30.2726829,40.6496667 27.9204115,41.5004883 25.050931,41.5004883 C23.3292427,41.5004883 21.654292,41.2202176 20.0260287,40.659668 L20.0260287,48.9077148 L16.082181,48.9077148 Z M21.507474,22.722168 L22.2281771,22.722168 C23.9498654,22.722168 25.4546518,22.0248279 26.7425814,20.630127 C28.030511,19.235426 28.6744662,17.6105236 28.6744662,15.7553711 C28.6744662,14.4607683 28.3408107,13.4864942 27.6734896,12.8325195 C27.0061686,12.1785449 26.0118751,11.8515625 24.6905795,11.8515625 C23.1290482,11.8515625 21.9612539,12.4721618 21.1871615,13.7133789 C20.4130691,14.954596 20.0260287,16.8097207 20.0260287,19.2788086 L20.0260287,37.2363281 C21.9345669,38.1038455 23.6228638,38.5375977 25.0909701,38.5375977 C26.705887,38.5375977 28.0772112,37.9537005 29.2049838,36.7858887 C30.3327563,35.6180768 30.8966342,34.2133871 30.8966342,32.5717773 C30.8966342,30.4897357 30.1158802,28.8214581 28.554349,27.5668945 C26.9928178,26.312331 24.9041342,25.6850586 22.2882357,25.6850586 L21.507474,25.6850586 L21.507474,22.722168 Z" id="β" fill="#FFFFFF" mask="url(#mask-4)"></path>
            </g>
        </g>
    </g>
</svg>